{
  "format": "Standard MIDI File",
  "tracks": 1,
  "tempo": 90,
  "time_signature": "4/4",
  "key": "C",
  "instruments": [
    {
      "program": 0,
      "channel": 0,
      "volume": 80
    }
  ],
  "events": [
    {
      "type": "note_on",
      "note": 72,
      "velocity": 100,
      "channel": 0,
      "time": 0
    },
    {
      "type": "note_off",
      "note": 72,
      "velocity": 0,
      "channel": 0,
      "time": 240.0
    },
    {
      "type": "note_on",
      "note": 76,
      "velocity": 90,
      "channel": 0,
      "time": 240.0
    },
    {
      "type": "note_off",
      "note": 76,
      "velocity": 0,
      "channel": 0,
      "time": 480.0
    },
    {
      "type": "note_on",
      "note": 79,
      "velocity": 110,
      "channel": 0,
      "time": 480.0
    },
    {
      "type": "note_off",
      "note": 79,
      "velocity": 0,
      "channel": 0,
      "time": 960.0
    },
    {
      "type": "note_on",
      "note": 69,
      "velocity": 80,
      "channel": 0,
      "time": 960.0
    },
    {
      "type": "note_off",
      "note": 69,
      "velocity": 0,
      "channel": 0,
      "time": 1200.0
    },
    {
      "type": "note_on",
      "note": 72,
      "velocity": 85,
      "channel": 0,
      "time": 1200.0
    },
    {
      "type": "note_off",
      "note": 72,
      "velocity": 0,
      "channel": 0,
      "time": 1440.0
    },
    {
      "type": "note_on",
      "note": 65,
      "velocity": 75,
      "channel": 0,
      "time": 1440.0
    },
    {
      "type": "note_off",
      "note": 65,
      "velocity": 0,
      "channel": 0,
      "time": 1680.0
    },
    {
      "type": "note_on",
      "note": 64,
      "velocity": 80,
      "channel": 0,
      "time": 1680.0
    },
    {
      "type": "note_off",
      "note": 64,
      "velocity": 0,
      "channel": 0,
      "time": 1920.0
    },
    {
      "type": "note_on",
      "note": 74,
      "velocity": 95,
      "channel": 0,
      "time": 1920.0
    },
    {
      "type": "note_off",
      "note": 74,
      "velocity": 0,
      "channel": 0,
      "time": 2280.0
    },
    {
      "type": "note_on",
      "note": 79,
      "velocity": 100,
      "channel": 0,
      "time": 2280.0
    },
    {
      "type": "note_off",
      "note": 79,
      "velocity": 0,
      "channel": 0,
      "time": 2400.0
    },
    {
      "type": "note_on",
      "note": 77,
      "velocity": 85,
      "channel": 0,
      "time": 2400.0
    },
    {
      "type": "note_off",
      "note": 77,
      "velocity": 0,
      "channel": 0,
      "time": 2880.0
    },
    {
      "type": "note_on",
      "note": 72,
      "velocity": 90,
      "channel": 0,
      "time": 2880.0
    },
    {
      "type": "note_off",
      "note": 72,
      "velocity": 0,
      "channel": 0,
      "time": 3120.0
    },
    {
      "type": "note_on",
      "note": 67,
      "velocity": 85,
      "channel": 0,
      "time": 3120.0
    },
    {
      "type": "note_off",
      "note": 67,
      "velocity": 0,
      "channel": 0,
      "time": 3360.0
    },
    {
      "type": "note_on",
      "note": 72,
      "velocity": 100,
      "channel": 0,
      "time": 3360.0
    },
    {
      "type": "note_off",
      "note": 72,
      "velocity": 0,
      "channel": 0,
      "time": 4080.0
    }
  ]
}