{
  "format": "Standard MIDI File",
  "tracks": 1,
  "tempo": 80,
  "time_signature": "4/4",
  "key": "C",
  "instruments": [
    {
      "program": 0,
      "channel": 0,
      "volume": 80
    }
  ],
  "events": [
    {
      "type": "note_on",
      "note": 72,
      "velocity": 40,
      "channel": 0,
      "time": 0
    },
    {
      "type": "note_off",
      "note": 72,
      "velocity": 0,
      "channel": 0,
      "time": 240.0
    },
    {
      "type": "note_on",
      "note": 76,
      "velocity": 70,
      "channel": 0,
      "time": 240.0
    },
    {
      "type": "note_off",
      "note": 76,
      "velocity": 0,
      "channel": 0,
      "time": 360.0
    },
    {
      "type": "note_on",
      "note": 79,
      "velocity": 70,
      "channel": 0,
      "time": 360.0
    },
    {
      "type": "note_off",
      "note": 79,
      "velocity": 0,
      "channel": 0,
      "time": 480.0
    },
    {
      "type": "note_on",
      "note": 79,
      "velocity": 40,
      "channel": 0,
      "time": 480.0
    },
    {
      "type": "note_off",
      "note": 79,
      "velocity": 0,
      "channel": 0,
      "time": 720.0
    },
    {
      "type": "note_on",
      "note": 83,
      "velocity": 70,
      "channel": 0,
      "time": 720.0
    },
    {
      "type": "note_off",
      "note": 83,
      "velocity": 0,
      "channel": 0,
      "time": 840.0
    },
    {
      "type": "note_on",
      "note": 81,
      "velocity": 40,
      "channel": 0,
      "time": 840.0
    },
    {
      "type": "note_off",
      "note": 81,
      "velocity": 0,
      "channel": 0,
      "time": 1080.0
    },
    {
      "type": "note_on",
      "note": 77,
      "velocity": 40,
      "channel": 0,
      "time": 1080.0
    },
    {
      "type": "note_off",
      "note": 77,
      "velocity": 0,
      "channel": 0,
      "time": 1320.0
    },
    {
      "type": "note_on",
      "note": 81,
      "velocity": 70,
      "channel": 0,
      "time": 1320.0
    },
    {
      "type": "note_off",
      "note": 81,
      "velocity": 0,
      "channel": 0,
      "time": 1440.0
    },
    {
      "type": "note_on",
      "note": 72,
      "velocity": 40,
      "channel": 0,
      "time": 1440.0
    },
    {
      "type": "note_off",
      "note": 72,
      "velocity": 0,
      "channel": 0,
      "time": 1680.0
    },
    {
      "type": "note_on",
      "note": 76,
      "velocity": 70,
      "channel": 0,
      "time": 1680.0
    },
    {
      "type": "note_off",
      "note": 76,
      "velocity": 0,
      "channel": 0,
      "time": 1800.0
    },
    {
      "type": "note_on",
      "note": 79,
      "velocity": 70,
      "channel": 0,
      "time": 1800.0
    },
    {
      "type": "note_off",
      "note": 79,
      "velocity": 0,
      "channel": 0,
      "time": 1920.0
    },
    {
      "type": "note_on",
      "note": 79,
      "velocity": 40,
      "channel": 0,
      "time": 1920.0
    },
    {
      "type": "note_off",
      "note": 79,
      "velocity": 0,
      "channel": 0,
      "time": 2160.0
    },
    {
      "type": "note_on",
      "note": 83,
      "velocity": 70,
      "channel": 0,
      "time": 2160.0
    },
    {
      "type": "note_off",
      "note": 83,
      "velocity": 0,
      "channel": 0,
      "time": 2280.0
    },
    {
      "type": "note_on",
      "note": 81,
      "velocity": 40,
      "channel": 0,
      "time": 2280.0
    },
    {
      "type": "note_off",
      "note": 81,
      "velocity": 0,
      "channel": 0,
      "time": 2520.0
    },
    {
      "type": "note_on",
      "note": 77,
      "velocity": 40,
      "channel": 0,
      "time": 2520.0
    },
    {
      "type": "note_off",
      "note": 77,
      "velocity": 0,
      "channel": 0,
      "time": 2760.0
    },
    {
      "type": "note_on",
      "note": 81,
      "velocity": 70,
      "channel": 0,
      "time": 2760.0
    },
    {
      "type": "note_off",
      "note": 81,
      "velocity": 0,
      "channel": 0,
      "time": 2880.0
    },
    {
      "type": "note_on",
      "note": 72,
      "velocity": 40,
      "channel": 0,
      "time": 2880.0
    },
    {
      "type": "note_off",
      "note": 72,
      "velocity": 0,
      "channel": 0,
      "time": 3120.0
    },
    {
      "type": "note_on",
      "note": 76,
      "velocity": 70,
      "channel": 0,
      "time": 3120.0
    },
    {
      "type": "note_off",
      "note": 76,
      "velocity": 0,
      "channel": 0,
      "time": 3240.0
    },
    {
      "type": "note_on",
      "note": 79,
      "velocity": 70,
      "channel": 0,
      "time": 3240.0
    },
    {
      "type": "note_off",
      "note": 79,
      "velocity": 0,
      "channel": 0,
      "time": 3360.0
    },
    {
      "type": "note_on",
      "note": 79,
      "velocity": 40,
      "channel": 0,
      "time": 3360.0
    },
    {
      "type": "note_off",
      "note": 79,
      "velocity": 0,
      "channel": 0,
      "time": 3600.0
    },
    {
      "type": "note_on",
      "note": 83,
      "velocity": 70,
      "channel": 0,
      "time": 3600.0
    },
    {
      "type": "note_off",
      "note": 83,
      "velocity": 0,
      "channel": 0,
      "time": 3720.0
    },
    {
      "type": "note_on",
      "note": 81,
      "velocity": 40,
      "channel": 0,
      "time": 3720.0
    },
    {
      "type": "note_off",
      "note": 81,
      "velocity": 0,
      "channel": 0,
      "time": 3960.0
    },
    {
      "type": "note_on",
      "note": 77,
      "velocity": 40,
      "channel": 0,
      "time": 3960.0
    },
    {
      "type": "note_off",
      "note": 77,
      "velocity": 0,
      "channel": 0,
      "time": 4200.0
    },
    {
      "type": "note_on",
      "note": 81,
      "velocity": 70,
      "channel": 0,
      "time": 4200.0
    },
    {
      "type": "note_off",
      "note": 81,
      "velocity": 0,
      "channel": 0,
      "time": 4320.0
    },
    {
      "type": "note_on",
      "note": 72,
      "velocity": 40,
      "channel": 0,
      "time": 4320.0
    },
    {
      "type": "note_off",
      "note": 72,
      "velocity": 0,
      "channel": 0,
      "time": 4560.0
    },
    {
      "type": "note_on",
      "note": 76,
      "velocity": 70,
      "channel": 0,
      "time": 4560.0
    },
    {
      "type": "note_off",
      "note": 76,
      "velocity": 0,
      "channel": 0,
      "time": 4680.0
    },
    {
      "type": "note_on",
      "note": 79,
      "velocity": 70,
      "channel": 0,
      "time": 4680.0
    },
    {
      "type": "note_off",
      "note": 79,
      "velocity": 0,
      "channel": 0,
      "time": 4800.0
    },
    {
      "type": "note_on",
      "note": 79,
      "velocity": 40,
      "channel": 0,
      "time": 4800.0
    },
    {
      "type": "note_off",
      "note": 79,
      "velocity": 0,
      "channel": 0,
      "time": 5040.0
    },
    {
      "type": "note_on",
      "note": 83,
      "velocity": 70,
      "channel": 0,
      "time": 5040.0
    },
    {
      "type": "note_off",
      "note": 83,
      "velocity": 0,
      "channel": 0,
      "time": 5160.0
    },
    {
      "type": "note_on",
      "note": 81,
      "velocity": 40,
      "channel": 0,
      "time": 5160.0
    },
    {
      "type": "note_off",
      "note": 81,
      "velocity": 0,
      "channel": 0,
      "time": 5400.0
    },
    {
      "type": "note_on",
      "note": 77,
      "velocity": 40,
      "channel": 0,
      "time": 5400.0
    },
    {
      "type": "note_off",
      "note": 77,
      "velocity": 0,
      "channel": 0,
      "time": 5640.0
    },
    {
      "type": "note_on",
      "note": 81,
      "velocity": 70,
      "channel": 0,
      "time": 5640.0
    },
    {
      "type": "note_off",
      "note": 81,
      "velocity": 0,
      "channel": 0,
      "time": 5760.0
    },
    {
      "type": "note_on",
      "note": 72,
      "velocity": 40,
      "channel": 0,
      "time": 5760.0
    },
    {
      "type": "note_off",
      "note": 72,
      "velocity": 0,
      "channel": 0,
      "time": 6000.0
    },
    {
      "type": "note_on",
      "note": 76,
      "velocity": 70,
      "channel": 0,
      "time": 6000.0
    },
    {
      "type": "note_off",
      "note": 76,
      "velocity": 0,
      "channel": 0,
      "time": 6120.0
    },
    {
      "type": "note_on",
      "note": 79,
      "velocity": 70,
      "channel": 0,
      "time": 6120.0
    },
    {
      "type": "note_off",
      "note": 79,
      "velocity": 0,
      "channel": 0,
      "time": 6240.0
    },
    {
      "type": "note_on",
      "note": 79,
      "velocity": 40,
      "channel": 0,
      "time": 6240.0
    },
    {
      "type": "note_off",
      "note": 79,
      "velocity": 0,
      "channel": 0,
      "time": 6480.0
    },
    {
      "type": "note_on",
      "note": 83,
      "velocity": 70,
      "channel": 0,
      "time": 6480.0
    },
    {
      "type": "note_off",
      "note": 83,
      "velocity": 0,
      "channel": 0,
      "time": 6600.0
    },
    {
      "type": "note_on",
      "note": 81,
      "velocity": 40,
      "channel": 0,
      "time": 6600.0
    },
    {
      "type": "note_off",
      "note": 81,
      "velocity": 0,
      "channel": 0,
      "time": 6840.0
    },
    {
      "type": "note_on",
      "note": 77,
      "velocity": 40,
      "channel": 0,
      "time": 6840.0
    },
    {
      "type": "note_off",
      "note": 77,
      "velocity": 0,
      "channel": 0,
      "time": 7080.0
    },
    {
      "type": "note_on",
      "note": 81,
      "velocity": 70,
      "channel": 0,
      "time": 7080.0
    },
    {
      "type": "note_off",
      "note": 81,
      "velocity": 0,
      "channel": 0,
      "time": 7200.0
    },
    {
      "type": "note_on",
      "note": 72,
      "velocity": 40,
      "channel": 0,
      "time": 7200.0
    },
    {
      "type": "note_off",
      "note": 72,
      "velocity": 0,
      "channel": 0,
      "time": 7440.0
    },
    {
      "type": "note_on",
      "note": 76,
      "velocity": 70,
      "channel": 0,
      "time": 7440.0
    },
    {
      "type": "note_off",
      "note": 76,
      "velocity": 0,
      "channel": 0,
      "time": 7560.0
    },
    {
      "type": "note_on",
      "note": 79,
      "velocity": 70,
      "channel": 0,
      "time": 7560.0
    },
    {
      "type": "note_off",
      "note": 79,
      "velocity": 0,
      "channel": 0,
      "time": 7680.0
    },
    {
      "type": "note_on",
      "note": 79,
      "velocity": 40,
      "channel": 0,
      "time": 7680.0
    },
    {
      "type": "note_off",
      "note": 79,
      "velocity": 0,
      "channel": 0,
      "time": 7920.0
    },
    {
      "type": "note_on",
      "note": 83,
      "velocity": 70,
      "channel": 0,
      "time": 7920.0
    },
    {
      "type": "note_off",
      "note": 83,
      "velocity": 0,
      "channel": 0,
      "time": 8040.0
    },
    {
      "type": "note_on",
      "note": 81,
      "velocity": 40,
      "channel": 0,
      "time": 8040.0
    },
    {
      "type": "note_off",
      "note": 81,
      "velocity": 0,
      "channel": 0,
      "time": 8280.0
    },
    {
      "type": "note_on",
      "note": 77,
      "velocity": 40,
      "channel": 0,
      "time": 8280.0
    },
    {
      "type": "note_off",
      "note": 77,
      "velocity": 0,
      "channel": 0,
      "time": 8520.0
    },
    {
      "type": "note_on",
      "note": 81,
      "velocity": 70,
      "channel": 0,
      "time": 8520.0
    },
    {
      "type": "note_off",
      "note": 81,
      "velocity": 0,
      "channel": 0,
      "time": 8640.0
    },
    {
      "type": "note_on",
      "note": 72,
      "velocity": 40,
      "channel": 0,
      "time": 8640.0
    },
    {
      "type": "note_off",
      "note": 72,
      "velocity": 0,
      "channel": 0,
      "time": 8880.0
    },
    {
      "type": "note_on",
      "note": 76,
      "velocity": 70,
      "channel": 0,
      "time": 8880.0
    },
    {
      "type": "note_off",
      "note": 76,
      "velocity": 0,
      "channel": 0,
      "time": 9000.0
    },
    {
      "type": "note_on",
      "note": 79,
      "velocity": 70,
      "channel": 0,
      "time": 9000.0
    },
    {
      "type": "note_off",
      "note": 79,
      "velocity": 0,
      "channel": 0,
      "time": 9120.0
    },
    {
      "type": "note_on",
      "note": 79,
      "velocity": 40,
      "channel": 0,
      "time": 9120.0
    },
    {
      "type": "note_off",
      "note": 79,
      "velocity": 0,
      "channel": 0,
      "time": 9360.0
    },
    {
      "type": "note_on",
      "note": 83,
      "velocity": 70,
      "channel": 0,
      "time": 9360.0
    },
    {
      "type": "note_off",
      "note": 83,
      "velocity": 0,
      "channel": 0,
      "time": 9480.0
    },
    {
      "type": "note_on",
      "note": 81,
      "velocity": 40,
      "channel": 0,
      "time": 9480.0
    },
    {
      "type": "note_off",
      "note": 81,
      "velocity": 0,
      "channel": 0,
      "time": 9720.0
    },
    {
      "type": "note_on",
      "note": 77,
      "velocity": 40,
      "channel": 0,
      "time": 9720.0
    },
    {
      "type": "note_off",
      "note": 77,
      "velocity": 0,
      "channel": 0,
      "time": 9960.0
    },
    {
      "type": "note_on",
      "note": 81,
      "velocity": 70,
      "channel": 0,
      "time": 9960.0
    },
    {
      "type": "note_off",
      "note": 81,
      "velocity": 0,
      "channel": 0,
      "time": 10080.0
    },
    {
      "type": "note_on",
      "note": 72,
      "velocity": 40,
      "channel": 0,
      "time": 10080.0
    },
    {
      "type": "note_off",
      "note": 72,
      "velocity": 0,
      "channel": 0,
      "time": 10320.0
    },
    {
      "type": "note_on",
      "note": 76,
      "velocity": 70,
      "channel": 0,
      "time": 10320.0
    },
    {
      "type": "note_off",
      "note": 76,
      "velocity": 0,
      "channel": 0,
      "time": 10440.0
    },
    {
      "type": "note_on",
      "note": 79,
      "velocity": 70,
      "channel": 0,
      "time": 10440.0
    },
    {
      "type": "note_off",
      "note": 79,
      "velocity": 0,
      "channel": 0,
      "time": 10560.0
    },
    {
      "type": "note_on",
      "note": 79,
      "velocity": 40,
      "channel": 0,
      "time": 10560.0
    },
    {
      "type": "note_off",
      "note": 79,
      "velocity": 0,
      "channel": 0,
      "time": 10800.0
    },
    {
      "type": "note_on",
      "note": 83,
      "velocity": 70,
      "channel": 0,
      "time": 10800.0
    },
    {
      "type": "note_off",
      "note": 83,
      "velocity": 0,
      "channel": 0,
      "time": 10920.0
    },
    {
      "type": "note_on",
      "note": 81,
      "velocity": 40,
      "channel": 0,
      "time": 10920.0
    },
    {
      "type": "note_off",
      "note": 81,
      "velocity": 0,
      "channel": 0,
      "time": 11160.0
    },
    {
      "type": "note_on",
      "note": 77,
      "velocity": 40,
      "channel": 0,
      "time": 11160.0
    },
    {
      "type": "note_off",
      "note": 77,
      "velocity": 0,
      "channel": 0,
      "time": 11400.0
    },
    {
      "type": "note_on",
      "note": 81,
      "velocity": 70,
      "channel": 0,
      "time": 11400.0
    },
    {
      "type": "note_off",
      "note": 81,
      "velocity": 0,
      "channel": 0,
      "time": 11520.0
    }
  ]
}